Coordinates
version=1
nRows=15
nColumns=46
inDegrees=yes

Units are S.I. units (second, meters, Newtons, ...)
Angles are in degrees.

endheader
time	pelvis_tilt	pelvis_list	pelvis_rotation	pelvis_tx	pelvis_ty	pelvis_tz	bb_angle	bb_tx	bb_ty	bb_tz	hip_flexion_r	hip_adduction_r	hip_rotation_r	knee_angle_r	knee_angle_r_beta	ankle_angle_r	subtalar_angle_r	mtp_angle_r	crank_angle_r	hip_flexion_l	hip_adduction_l	hip_rotation_l	knee_angle_l	knee_angle_l_beta	ankle_angle_l	subtalar_angle_l	mtp_angle_l	crank_angle_l	lumbar_extension	lumbar_bending	lumbar_rotation	arm_flex_r	arm_add_r	arm_rot_r	elbow_flex_r	pro_sup_r	wrist_flex_r	wrist_dev_r	arm_flex_l	arm_add_l	arm_rot_l	elbow_flex_l	pro_sup_l	wrist_flex_l	wrist_dev_l
      7.50000000	    -30.20066300	     -8.76087899	    -10.40670287	      0.19285544	      1.07683806	     -0.23312655	      0.00000000	      0.50000000	      0.00000000	      0.25000000	     96.07252404	      4.98590093	     -2.70870777	     98.01471057	      1.71067941	      3.07145500	     -1.64713638	      0.00000000	      0.00000000	     50.10165279	    -18.76620704	     -8.24009667	     39.75687487	      0.69388837	    -37.87216582	    -14.86782103	      0.00000000	      0.00000000	    -47.70506997	      1.15099934	      9.86671802	     85.01685239	    -18.94783275	     43.47176305	     58.66950190	     49.47420599	      0.00000000	      0.00000000	     74.18243139	    -18.79847874	     26.13171531	     66.71780991	     48.51460481	      0.00000000	      0.00000000
      7.50500000	    -30.17700738	     -8.56936782	    -10.41041464	      0.19125241	      1.07840990	     -0.23327113	      0.00000000	      0.50000000	      0.00000000	      0.25000000	     95.37330736	      5.01165085	     -2.63266174	     95.86517247	      1.67316290	      3.13159432	     -1.56650925	      0.00000000	      0.00000000	     50.67487493	    -18.59994107	     -7.73569966	     41.62322877	      0.72646239	    -37.79308027	    -15.59688175	      0.00000000	      0.00000000	    -47.81411689	      0.91382728	      9.61738204	     85.24088837	    -18.76022759	     43.36766690	     58.48796326	     49.43055280	      0.00000000	      0.00000000	     74.71177300	    -18.70773795	     26.13356317	     66.41457553	     48.47474230	      0.00000000	      0.00000000
      7.51000000	    -30.27130648	     -8.37169814	    -10.35523886	      0.18950915	      1.07964563	     -0.23342137	      0.00000000	      0.50000000	      0.00000000	      0.25000000	     94.70537152	      4.97068470	     -2.59435713	     93.60789349	      1.63376595	      3.08942063	     -1.62180511	      0.00000000	      0.00000000	     51.47310825	    -18.33117577	     -6.98642055	     43.57380554	      0.76050637	    -37.69606757	    -16.30719511	      0.00000000	      0.00000000	    -47.63409643	      0.79812588	      9.45371244	     85.43249445	    -18.16607020	     43.08153098	     57.31728522	     49.20722170	      0.00000000	      0.00000000	     75.45609683	    -18.37237220	     26.64720335	     64.84011044	     48.35464956	      0.00000000	      0.00000000
      7.51500000	    -30.19657122	     -8.05844312	    -10.28274515	      0.18805168	      1.08119906	     -0.23348080	      0.00000000	      0.50000000	      0.00000000	      0.25000000	     93.77750919	      4.94073290	     -2.38862962	     91.29277242	      1.59335946	      2.95230931	     -1.51624268	      0.00000000	      0.00000000	     52.02885520	    -17.95054071	     -6.39095012	     45.47708430	      0.79372486	    -37.43521761	    -16.96023710	      0.00000000	      0.00000000	    -47.74116099	      0.46861932	      9.05210092	     85.52588613	    -18.06026600	     42.99862893	     57.31285726	     49.19594830	      0.00000000	      0.00000000	     75.87485794	    -18.34040433	     26.60999544	     64.75605951	     48.34127777	      0.00000000	      0.00000000
      7.52000000	    -30.21874198	     -7.96958686	    -10.14848796	      0.18648401	      1.08241409	     -0.23366231	      0.00000000	      0.50000000	      0.00000000	      0.25000000	     92.81390764	      4.82233265	     -2.50422000	     88.83636822	      1.55048712	      2.76880035	     -1.69802710	      0.00000000	      0.00000000	     52.86666260	    -17.65623286	     -5.46182112	     47.59819309	      0.83074519	    -37.13303100	    -17.74486101	      0.00000000	      0.00000000	    -47.77420371	      0.49628068	      8.85679987	     85.72388850	    -17.73498990	     42.75640416	     57.05931912	     49.12346766	      0.00000000	      0.00000000	     76.30074013	    -18.32747319	     26.75300597	     64.19367593	     48.28390738	      0.00000000	      0.00000000
      7.52500000	    -30.20104051	     -7.68601216	     -9.99808367	      0.18501940	      1.08365345	     -0.23365110	      0.00000000	      0.50000000	      0.00000000	      0.25000000	     91.76376393	      4.67404862	     -2.44044894	     86.34898561	      1.50707410	      2.52702277	     -1.80812644	      0.00000000	      0.00000000	     53.60665719	    -17.19742932	     -4.72163377	     49.66132258	      0.86675359	    -36.57644282	    -18.32766575	      0.00000000	      0.00000000	    -47.78782298	      0.29062559	      8.47954632	     85.81812311	    -17.36799191	     42.51682405	     56.62235999	     49.02244687	      0.00000000	      0.00000000	     76.81523524	    -18.24673941	     26.98268618	     63.51232367	     48.21810255	      0.00000000	      0.00000000
      7.53000000	    -30.06721707	     -7.24899716	     -9.80538271	      0.18377318	      1.08499453	     -0.23377740	      0.00000000	      0.50000000	      0.00000000	      0.25000000	     90.54524795	      4.46307187	     -2.21721842	     83.84257614	      1.46332901	      2.23268561	     -1.68776280	      0.00000000	      0.00000000	     54.16073936	    -16.52780869	     -4.11062487	     51.70495345	      0.90242168	    -35.81523066	    -19.05183434	      0.00000000	      0.00000000	    -47.89063301	     -0.05286472	      7.97851715	     85.83559282	    -17.19246613	     42.36424027	     56.40921191	     48.96952891	      0.00000000	      0.00000000	     77.31145251	    -18.15234823	     27.07943391	     63.19354509	     48.18295698	      0.00000000	      0.00000000
      7.53500000	    -29.97933190	     -6.98803251	     -9.56096483	      0.18248710	      1.08618776	     -0.23366646	      0.00000000	      0.50000000	      0.00000000	      0.25000000	     89.24562594	      4.25795693	     -2.18323604	     81.24118285	      1.41792613	      1.93050720	     -1.89836196	      0.00000000	      0.00000000	     54.90401187	    -16.05244640	     -3.37937266	     53.89083664	      0.94057254	    -34.79048286	    -19.18584903	      0.00000000	      0.00000000	    -47.86281875	     -0.22312133	      7.63426880	     85.84970286	    -16.41488535	     41.50974111	     55.14596950	     48.66444743	      0.00000000	      0.00000000	     78.26989578	    -17.88483282	     28.03629993	     61.34234913	     48.05373703	      0.00000000	      0.00000000
      7.54000000	    -29.83840400	     -6.54094982	     -9.30803334	      0.18122555	      1.08746999	     -0.23367317	      0.00000000	      0.50000000	      0.00000000	      0.25000000	     87.85625100	      3.97432031	     -1.97329935	     78.59866049	      1.37180541	      1.58961941	     -1.81977892	      0.00000000	      0.00000000	     55.51085031	    -15.38194166	     -2.87810743	     55.96243656	      0.97672878	    -33.88421445	    -19.79364128	      0.00000000	      0.00000000	    -48.01328327	     -0.56436062	      7.09335067	     85.88921365	    -16.34164217	     41.38911728	     55.12084296	     48.64619903	      0.00000000	      0.00000000	     78.70432001	    -17.84427988	     28.06833945	     61.20374968	     48.04048125	      0.00000000	      0.00000000
      7.54500000	    -29.69885347	     -6.27161403	     -8.99850355	      0.17996415	      1.08842055	     -0.23354903	      0.00000000	      0.50000000	      0.00000000	      0.25000000	     86.38032097	      3.70882426	     -1.97601129	     75.88091246	      1.32437176	      1.11361587	     -2.14759931	      0.00000000	      0.00000000	     56.26310230	    -14.88642925	     -2.24697438	     58.22958317	      1.01629795	    -32.45721046	    -19.59454510	      0.00000000	      0.00000000	    -48.08899999	     -0.68779558	      6.71253506	     85.88992288	    -15.95964506	     40.64380062	     54.60808868	     48.47889501	      0.00000000	      0.00000000	     79.42187944	    -17.75815700	     28.74205770	     60.14076550	     47.98530733	      0.00000000	      0.00000000
      7.55000000	    -29.51433637	     -5.85750567	     -8.62637142	      0.17870642	      1.08921037	     -0.23343983	      0.00000000	      0.50000000	      0.00000000	      0.25000000	     84.86836256	      3.36070648	     -1.79447762	     73.21107390	      1.27777429	      0.67601372	     -2.27286015	      0.00000000	      0.00000000	     56.96690072	    -14.25116532	     -1.80489579	     60.46683297	      1.05534532	    -31.14842223	    -19.59576753	      0.00000000	      0.00000000	    -48.20546173	     -0.94498409	      6.18427956	     85.85912449	    -15.69814733	     40.01808365	     54.22844966	     48.35060732	      0.00000000	      0.00000000	     80.15486959	    -17.58439185	     29.32937643	     59.23382904	     47.95071698	      0.00000000	      0.00000000
      7.55500000	    -29.37423947	     -5.33163659	     -8.22854635	      0.17757613	      1.08993584	     -0.23351790	      0.00000000	      0.50000000	      0.00000000	      0.25000000	     83.33412651	      2.85614631	     -1.62256117	     70.44874764	      1.22956260	      0.27512468	     -2.14146104	      0.00000000	      0.00000000	     57.67560173	    -13.57089623	     -1.64384217	     62.57950803	      1.09221846	    -30.01811113	    -20.02364871	      0.00000000	      0.00000000	    -48.31091878	     -1.25080809	      5.53881574	     85.82649361	    -15.69890310	     39.87858536	     54.21661176	     48.33499967	      0.00000000	      0.00000000	     80.56352695	    -17.51205236	     29.38962806	     59.10722321	     47.93967772	      0.00000000	      0.00000000
      7.56000000	    -29.17319663	     -4.95587787	     -7.79095112	      0.17636104	      1.09035772	     -0.23359119	      0.00000000	      0.50000000	      0.00000000	      0.25000000	     81.69582345	      2.39691128	     -1.54065786	     67.71068323	      1.18177436	     -0.17527758	     -2.17008346	      0.00000000	      0.00000000	     58.46108676	    -13.04839045	     -1.42513470	     64.85882480	      1.13200004	    -28.63740408	    -19.91737627	      0.00000000	      0.00000000	    -48.46468011	     -1.40660345	      4.97126835	     85.88254983	    -15.62197938	     39.60433338	     54.13342332	     48.29121580	      0.00000000	      0.00000000	     81.05262267	    -17.45635479	     29.58749583	     58.76141839	     47.90944905	      0.00000000	      0.00000000
      7.56500000	    -29.04468563	     -4.48990593	     -7.35347732	      0.17518297	      1.09049082	     -0.23371990	      0.00000000	      0.50000000	      0.00000000	      0.25000000	     80.10217855	      1.85271519	     -1.49101327	     64.92922637	      1.13322878	     -0.62713009	     -2.14890875	      0.00000000	      0.00000000	     59.31367134	    -12.46727072	     -1.29765161	     67.09450237	      1.17101998	    -27.21022503	    -19.70093139	      0.00000000	      0.00000000	    -48.53362079	     -1.58932698	      4.40980470	     85.85914771	    -15.54468258	     39.30955953	     53.97748159	     48.23420672	      0.00000000	      0.00000000	     81.55650610	    -17.37521882	     29.89484591	     58.36445719	     47.88143497	      0.00000000	      0.00000000
      7.57000000	    -28.86343968	     -4.08994269	     -6.89577012	      0.17384357	      1.09035349	     -0.23357740	      0.00000000	      0.50000000	      0.00000000	      0.25000000	     78.42697144	      1.35293989	     -1.46715414	     62.16150192	      1.08492288	     -1.10930560	     -2.28936785	      0.00000000	      0.00000000	     60.22907316	    -12.03680605	     -1.17795553	     69.43748704	      1.21191277	    -25.36727985	    -18.67372952	      0.00000000	      0.00000000	    -48.50348479	     -1.83339751	      4.03309123	     85.70987775	    -15.05868636	     37.99341856	     52.98988866	     47.93496937	      0.00000000	      0.00000000	     82.81589979	    -17.09531927	     31.89470206	     56.27881528	     47.80706757	      0.00000000	      0.00000000
